HIERARCHY
ROOT root
{
	OFFSET 0.000000 0.000000 0.000000
	CHANNELS 6 Xposition Yposition Zposition Zrotation Yrotation Xrotation
	JOINT lhip
	{
		OFFSET 0.058581 -0.082280 -0.017664
		CHANNELS 3 Zrotation Yrotation Xrotation
		JOINT lknee
		{
			OFFSET 0.043451 -0.386469 0.008037
			CHANNELS 3 Zrotation Yrotation Xrotation
			JOINT lankle
			{
				OFFSET -0.014790 -0.426874 -0.037428
				CHANNELS 3 Zrotation Yrotation Xrotation
				JOINT ltoe
				{
					OFFSET 0.041054 -0.060286 0.122042
					CHANNELS 3 Zrotation Yrotation Xrotation
					End Site
					{
						OFFSET 0.000000 0.000000 0.000000
					}
				}
			}
		}
	}
	JOINT rhip
	{
		OFFSET -0.060310 -0.090513 -0.013543
		CHANNELS 3 Zrotation Yrotation Xrotation
		JOINT rknee
		{
			OFFSET -0.043257 -0.383688 -0.004843
			CHANNELS 3 Zrotation Yrotation Xrotation
			JOINT rankle
			{
				OFFSET 0.019056 -0.420046 -0.034562
				CHANNELS 3 Zrotation Yrotation Xrotation
				JOINT rtoe
				{
					OFFSET -0.034840 -0.062106 0.130323
					CHANNELS 3 Zrotation Yrotation Xrotation
					End Site
					{
						OFFSET 0.000000 0.000000 0.000000
					}
				}
			}
		}
	}
	JOINT lowerback
	{
		OFFSET 0.004439 0.124404 -0.038385
		CHANNELS 3 Zrotation Yrotation Xrotation
		JOINT upperback
		{
			OFFSET 0.004488 0.137956 0.026820
			CHANNELS 3 Zrotation Yrotation Xrotation
			JOINT chest
			{
				OFFSET -0.002265 0.056032 0.002855
				CHANNELS 3 Zrotation Yrotation Xrotation
				JOINT lowerneck
				{
					OFFSET -0.013390 0.211636 -0.033468
					CHANNELS 3 Zrotation Yrotation Xrotation
					JOINT upperneck
					{
						OFFSET 0.010113 0.088937 0.050410
						CHANNELS 3 Zrotation Yrotation Xrotation
						End Site
						{
							OFFSET 0.000000 0.000000 0.000000
						}
					}
				}
				JOINT lclavicle
				{
					OFFSET 0.071702 0.114000 -0.018898
					CHANNELS 3 Zrotation Yrotation Xrotation
					JOINT lshoulder
					{
						OFFSET 0.122921 0.045205 -0.019046
						CHANNELS 3 Zrotation Yrotation Xrotation
						JOINT lelbow
						{
							OFFSET 0.255332 -0.015649 -0.022946
							CHANNELS 3 Zrotation Yrotation Xrotation
							JOINT lwrist
							{
								OFFSET 0.265709 0.012698 -0.007375
								CHANNELS 3 Zrotation Yrotation Xrotation
								End Site
								{
									OFFSET 0.000000 0.000000 0.000000
								}
							}
						}
					}
				}
				JOINT rclavicle
				{
					OFFSET -0.082954 0.112472 -0.023707
					CHANNELS 3 Zrotation Yrotation Xrotation
					JOINT rshoulder
					{
						OFFSET -0.113228 0.046853 -0.008472
						CHANNELS 3 Zrotation Yrotation Xrotation
						JOINT relbow
						{
							OFFSET -0.260127 -0.014369 -0.031269
							CHANNELS 3 Zrotation Yrotation Xrotation
							JOINT rwrist
							{
								OFFSET -0.269108 0.006794 -0.006027
								CHANNELS 3 Zrotation Yrotation Xrotation
								End Site
								{
									OFFSET 0.000000 0.000000 0.000000
								}
							}
						}
					}
				}
			}
		}
	}
}
MOTION
Frames: 7
Frame Time: 0.033333
1.819211 0.455091 1.038002 -41.422196 -2.057903 91.413262 -7.492975 -7.404386 -3.658492 1.451675 -3.483792 4.739867 6.662623 12.853878 -13.049022 0.000000 -0.000000 0.000000 -3.029279 0.843786 -8.876311 -4.879543 -7.178314 50.573517 -0.592804 -13.727927 -15.528414 0.000000 -0.000000 0.000000 -0.934480 2.694534 2.053622 3.559719 0.463119 2.684732 -0.063804 1.377416 -2.464294 4.107269 -12.391004 -2.361260 -1.722458 -18.614929 17.675028 -20.410486 4.806759 4.852275 -64.048787 -4.734349 6.662278 17.961648 -27.854060 -3.816326 7.020524 -23.391895 1.904638 22.723933 0.596335 1.856543 60.784573 -4.135658 10.162971 -14.322390 27.903142 0.839624 6.035545 12.798496 1.008929 
1.812754 0.441907 1.038813 -39.774364 -1.465967 90.474100 -7.511729 -7.768665 -0.876094 1.729812 -4.922366 3.462795 6.794324 14.240852 -13.036701 0.000000 -0.000000 0.000000 -1.232250 1.689779 -11.037878 -4.428362 -8.028947 51.167702 -1.355553 -14.286009 -17.715369 0.000000 -0.000000 0.000000 -0.509468 1.583188 3.443070 3.603746 0.329623 1.898104 0.155234 1.065449 -1.724870 4.479828 -12.295781 -2.108059 -1.137039 -18.643705 16.493867 -20.032248 4.295581 5.220016 -64.168078 -4.394149 7.661938 18.447733 -28.797498 -3.763172 8.867730 -22.070246 0.205273 22.572004 0.963935 1.841683 60.974897 -4.085913 10.846514 -14.974247 29.100554 0.330837 5.329261 12.182550 0.455546 
1.807580 0.430563 1.039323 -38.390128 -1.267420 90.727382 -7.484916 -6.612337 -0.203583 1.814301 -6.631355 3.009064 6.282803 13.243719 -13.609233 0.000000 -0.000000 0.000000 -0.206802 2.612996 -14.581788 -4.111293 -8.695701 49.875754 -1.454698 -14.310094 -18.584976 0.000000 -0.000000 0.000000 -0.923302 0.533921 3.843973 3.967804 0.349183 1.576249 0.553693 0.811618 -1.538532 4.995663 -11.601572 -2.410396 -1.148032 -19.207881 15.952877 -19.280364 4.470017 5.032704 -64.873242 -4.482491 8.574992 17.916633 -29.670797 -2.966287 7.610772 -20.676510 -2.321355 22.725382 0.694096 1.782879 60.547418 -3.622208 11.215899 -14.842536 29.987997 1.067065 4.999294 12.155532 -0.679242 
1.798928 0.413983 1.039719 -36.448094 -1.030133 89.851525 -8.034049 -6.544926 2.903748 2.819483 -7.470578 1.667658 5.513501 12.846795 -14.674324 0.000000 -0.000000 0.000000 0.980712 3.694652 -16.303789 -5.171938 -10.661514 45.235280 -0.364481 -13.737164 -19.686438 0.000000 -0.000000 0.000000 -0.711299 -0.523334 4.974268 3.776456 0.149478 1.919987 0.902707 0.204324 -1.741576 5.499426 -10.928412 -2.279033 -1.082944 -19.292533 15.610088 -19.701187 4.451445 4.701364 -65.030270 -5.336498 7.538840 20.599232 -28.960340 -3.186785 -5.488685 -18.007961 3.189676 22.505696 0.713576 1.474753 60.821118 -3.534230 10.954448 -15.407929 30.597115 1.639758 8.636413 12.167993 -0.475820 
1.793191 0.405478 1.038930 -35.674710 -0.746482 89.773029 -7.853027 -6.564382 4.203362 2.891695 -8.419758 0.822045 5.603390 13.508137 -14.945971 0.000000 -0.000000 0.000000 1.959810 3.989553 -17.590823 -4.283513 -10.381927 40.488898 -0.619776 -15.454598 -19.630255 0.000000 -0.000000 0.000000 -0.654338 -0.790975 5.520655 3.998835 0.238828 1.280001 1.068728 -0.076258 -1.283899 5.031682 -12.226287 -2.555155 -0.508963 -19.116175 15.077662 -19.692550 4.370221 5.825815 -64.823869 -4.984693 9.009076 18.754842 -30.417226 -3.382408 9.838460 -21.839311 -1.633369 22.335996 0.845580 1.746849 60.682623 -3.387030 11.795806 -15.177699 30.634226 1.299354 3.469232 12.226048 -0.871219 
1.786480 0.393614 1.037737 -34.868580 -0.869374 90.473804 -8.097321 -6.303253 4.716295 3.246691 -8.022389 0.097208 5.332689 12.144099 -15.589095 0.000000 -0.000000 0.000000 2.171657 4.994222 -19.765769 -4.436958 -11.769030 33.453497 -0.438308 -14.551150 -18.672373 0.000000 -0.000000 0.000000 -0.525282 -1.419395 5.229797 3.444777 0.497981 1.562348 1.187120 -0.229514 -1.812157 5.451327 -12.055061 -2.821027 -0.948369 -19.851354 15.166555 -20.519757 4.807190 4.720455 -64.192337 -6.151529 7.096963 21.164598 -30.081045 -3.968187 -12.925638 -15.907352 6.620900 22.838747 0.843040 2.207308 60.645071 -3.322266 11.145776 -16.338648 30.906021 0.479250 10.737072 12.271657 -0.818616 
1.776378 0.379984 1.036246 -33.666652 -0.750492 90.407435 -7.666892 -4.838903 6.060066 3.256205 -8.984104 -0.246481 4.544053 10.899761 -16.689088 0.000000 -0.000000 0.000000 3.428542 4.583205 -19.705894 -4.580866 -11.211769 23.683566 -0.569388 -15.387632 -17.493311 0.000000 -0.000000 0.000000 -0.593397 -1.674977 5.123552 3.359079 0.385944 1.886848 1.454935 -0.438635 -1.948277 4.961268 -13.184252 -2.740788 -0.373482 -20.060639 14.963484 -20.536169 5.027341 5.314358 -64.281840 -6.686438 7.492745 20.692905 -30.590617 -2.909740 -8.240990 -19.182637 4.954978 22.809408 0.735488 2.408925 60.627287 -3.372144 11.175579 -15.794832 29.961413 0.944542 8.272000 12.361966 -0.649062 
